<svg xmlns="http://www.w3.org/2000/svg" width="25" height="24" fill="none"><path fill="#262626" d="M17.548 4.345A23.1 23.1 0 0 1 8.917 6h-.75a5.25 5.25 0 0 0-.88 10.427 21.6 21.6 0 0 0 1.378 3.94c.464 1.004 1.674 1.32 2.582.796l.657-.379c.88-.508 1.165-1.593.772-2.468a17 17 0 0 1-.628-1.607c1.918.258 3.76.75 5.5 1.445a21.7 21.7 0 0 0 1.119-6.904c0-2.414-.393-4.735-1.119-6.905m1.38-.605a23.2 23.2 0 0 1 1.239 7.51 23.2 23.2 0 0 1-1.41 7.992.75.75 0 1 0 1.409.516 24.6 24.6 0 0 0 1.415-6.43 3 3 0 0 0 .836-2.078c0-.807-.32-1.54-.836-2.078a24.7 24.7 0 0 0-1.415-6.43.75.75 0 1 0-1.409.516q.088.24.17.483"/></svg>