<svg xmlns="http://www.w3.org/2000/svg" width="25" height="24" fill="none"><path fill="#262626" fill-rule="evenodd" d="M9.334 4.5a.75.75 0 0 1 .72.544l.814 2.846a3.75 3.75 0 0 0 2.575 2.576l2.847.813a.75.75 0 0 1 0 1.442l-2.847.813a3.75 3.75 0 0 0-2.575 2.576l-.813 2.846a.75.75 0 0 1-1.443 0L7.8 16.11a3.75 3.75 0 0 0-2.575-2.576l-2.847-.813a.75.75 0 0 1 0-1.442l2.847-.813A3.75 3.75 0 0 0 7.799 7.89l.813-2.846a.75.75 0 0 1 .722-.544m9-3a.75.75 0 0 1 .727.568l.259 1.036c.235.94.97 1.674 1.91 1.91l1.035.258a.75.75 0 0 1 0 1.456l-1.035.258c-.94.236-1.675.97-1.91 1.91l-.259 1.036a.75.75 0 0 1-1.455 0l-.259-1.036a2.63 2.63 0 0 0-1.91-1.91l-1.035-.258a.75.75 0 0 1 0-1.456l1.035-.258a2.63 2.63 0 0 0 1.91-1.91l.259-1.036a.75.75 0 0 1 .727-.568M16.834 15a.75.75 0 0 1 .711.513l.394 1.183c.15.447.501.799.949.948l1.183.395a.75.75 0 0 1 0 1.422l-1.183.395c-.448.15-.8.5-.949.948l-.394 1.183a.75.75 0 0 1-1.423 0l-.394-1.183a1.5 1.5 0 0 0-.949-.948l-1.183-.395a.75.75 0 0 1 0-1.422l1.183-.395c.448-.15.8-.5.949-.948l.394-1.183a.75.75 0 0 1 .712-.513" clip-rule="evenodd"/></svg>