<svg xmlns="http://www.w3.org/2000/svg" width="25" height="24" fill="none"><path fill="#262626" fill-rule="evenodd" d="M19.783 8.448 16.72 11a4.5 4.5 0 0 1 0 2.002l3.061 2.55a8.28 8.28 0 0 0 0-7.103M15.885 19.45l-2.55-3.061a4.5 4.5 0 0 1-2.002 0L8.782 19.45a8.28 8.28 0 0 0 7.103 0m-11-3.897L7.945 13a4.5 4.5 0 0 1 0-2.002l-3.06-2.55a8.28 8.28 0 0 0 0 7.103M8.782 4.55l2.55 3.061a4.5 4.5 0 0 1 2.002 0l2.551-3.061a8.28 8.28 0 0 0-7.103 0m8.657-.86a9.8 9.8 0 0 1 1.789 1.415 9.8 9.8 0 0 1 1.414 1.788 9.76 9.76 0 0 1 0 10.212 9.8 9.8 0 0 1-1.414 1.788 9.8 9.8 0 0 1-1.789 1.415 9.76 9.76 0 0 1-10.211 0 9.8 9.8 0 0 1-1.789-1.415 9.8 9.8 0 0 1-1.414-1.788 9.76 9.76 0 0 1 0-10.212 9.8 9.8 0 0 1 1.414-1.788A9.8 9.8 0 0 1 7.228 3.69a9.76 9.76 0 0 1 10.211 0m-2.984 6.19a3 3 0 0 0-1.11-.704 3 3 0 0 0-2.023 0 3 3 0 0 0-1.11.704c-.325.325-.56.705-.704 1.11a3 3 0 0 0 0 2.022c.145.405.379.785.704 1.11.326.326.706.56 1.11.704.653.233 1.37.233 2.023 0a3 3 0 0 0 1.11-.704c.325-.325.56-.705.704-1.11a3 3 0 0 0 0-2.022 3 3 0 0 0-.704-1.11" clip-rule="evenodd"/></svg>