<svg width="25" height="24" viewBox="0 0 25 24" fill="none" xmlns="http://www.w3.org/2000/svg">
<path d="M12.667 2.25C13.0812 2.25 13.417 2.58579 13.417 3V5.25C13.417 5.66421 13.0812 6 12.667 6C12.2528 6 11.917 5.66421 11.917 5.25V3C11.917 2.58579 12.2528 2.25 12.667 2.25Z" fill="#262626"/>
<path d="M8.16699 12C8.16699 9.51472 10.1817 7.5 12.667 7.5C15.1523 7.5 17.167 9.51472 17.167 12C17.167 14.4853 15.1523 16.5 12.667 16.5C10.1817 16.5 8.16699 14.4853 8.16699 12Z" fill="#262626"/>
<path d="M19.5613 6.16634C19.8542 5.87344 19.8542 5.39857 19.5613 5.10568C19.2684 4.81278 18.7936 4.81278 18.5007 5.10568L16.9097 6.69667C16.6168 6.98956 16.6168 7.46444 16.9097 7.75733C17.2026 8.05022 17.6775 8.05022 17.9703 7.75733L19.5613 6.16634Z" fill="#262626"/>
<path d="M22.417 12C22.417 12.4142 22.0812 12.75 21.667 12.75H19.417C19.0028 12.75 18.667 12.4142 18.667 12C18.667 11.5858 19.0028 11.25 19.417 11.25H21.667C22.0812 11.25 22.417 11.5858 22.417 12Z" fill="#262626"/>
<path d="M18.5006 18.8943C18.7935 19.1871 19.2683 19.1871 19.5612 18.8943C19.8541 18.6014 19.8541 18.1265 19.5612 17.8336L17.9702 16.2426C17.6773 15.9497 17.2025 15.9497 16.9096 16.2426C16.6167 16.5355 16.6167 17.0104 16.9096 17.3033L18.5006 18.8943Z" fill="#262626"/>
<path d="M12.667 18C13.0812 18 13.417 18.3358 13.417 18.75V21C13.417 21.4142 13.0812 21.75 12.667 21.75C12.2528 21.75 11.917 21.4142 11.917 21V18.75C11.917 18.3358 12.2528 18 12.667 18Z" fill="#262626"/>
<path d="M8.42449 17.3033C8.71739 17.0104 8.71739 16.5355 8.42449 16.2426C8.1316 15.9497 7.65673 15.9497 7.36384 16.2426L5.77284 17.8336C5.47995 18.1265 5.47995 18.6014 5.77284 18.8943C6.06574 19.1872 6.54061 19.1872 6.8335 18.8943L8.42449 17.3033Z" fill="#262626"/>
<path d="M6.66699 12C6.66699 12.4142 6.33121 12.75 5.91699 12.75H3.66699C3.25278 12.75 2.91699 12.4142 2.91699 12C2.91699 11.5858 3.25278 11.25 3.66699 11.25H5.91699C6.33121 11.25 6.66699 11.5858 6.66699 12Z" fill="#262626"/>
<path d="M7.36372 7.75732C7.65662 8.05021 8.13149 8.05021 8.42438 7.75732C8.71727 7.46443 8.71727 6.98955 8.42438 6.69666L6.83339 5.10567C6.5405 4.81278 6.06562 4.81278 5.77273 5.10567C5.47984 5.39856 5.47984 5.87344 5.77273 6.16633L7.36372 7.75732Z" fill="#262626"/>
</svg>
