<svg xmlns="http://www.w3.org/2000/svg" width="25" height="24" fill="none"><path fill="#262626" d="M12.667 2.25a.75.75 0 0 1 .75.75v2.25a.75.75 0 0 1-1.5 0V3a.75.75 0 0 1 .75-.75M8.167 12a4.5 4.5 0 1 1 9 0 4.5 4.5 0 0 1-9 0m11.394-5.834a.75.75 0 0 0-1.06-1.06l-1.591 1.59a.75.75 0 0 0 1.06 1.061zM22.417 12a.75.75 0 0 1-.75.75h-2.25a.75.75 0 0 1 0-1.5h2.25a.75.75 0 0 1 .75.75M18.5 18.894a.75.75 0 0 0 1.061-1.06l-1.59-1.591a.75.75 0 1 0-1.061 1.06zM12.667 18a.75.75 0 0 1 .75.75V21a.75.75 0 0 1-1.5 0v-2.25a.75.75 0 0 1 .75-.75m-4.243-.697a.75.75 0 0 0-1.06-1.06l-1.591 1.59a.75.75 0 0 0 1.06 1.061zM6.667 12a.75.75 0 0 1-.75.75h-2.25a.75.75 0 0 1 0-1.5h2.25a.75.75 0 0 1 .75.75m.697-4.243a.75.75 0 0 0 1.06-1.06l-1.59-1.591a.75.75 0 0 0-1.061 1.06z"/></svg>