<svg width="16" height="16" viewBox="0 0 16 16" fill="none" xmlns="http://www.w3.org/2000/svg">
<path d="M1.59961 14.3998C1.59961 13.5594 1.76515 12.7271 2.08678 11.9506C2.40841 11.1742 2.87983 10.4686 3.47412 9.87433C4.06842 9.28004 4.77395 8.80862 5.55043 8.48699C6.32691 8.16536 7.15914 7.99982 7.9996 7.99982V14.3998L1.59961 14.3998Z" fill="#1A1A1A"/>
<path d="M8 7.99982C8 8.84028 8.16554 9.67251 8.48717 10.449C8.8088 11.2255 9.28022 11.931 9.87452 12.5253C10.4688 13.1196 11.1743 13.591 11.9508 13.9126C12.7273 14.2343 13.5595 14.3998 14.4 14.3998L14.4 7.99982L8 7.99982Z" fill="#FFD400"/>
<path d="M7.9996 7.99997C7.9996 7.15951 7.83406 6.32728 7.51243 5.5508C7.1908 4.77431 6.71938 4.06878 6.12509 3.47449C5.53079 2.8802 4.82526 2.40878 4.04878 2.08715C3.2723 1.76552 2.44007 1.59998 1.59961 1.59998L1.59961 7.99997H7.9996Z" fill="#FFD400"/>
<path d="M14.4 1.59998C14.4 2.44043 14.2345 3.27266 13.9128 4.04915C13.5912 4.82563 13.1198 5.53116 12.5255 6.12545C11.9312 6.71975 11.2257 7.19117 10.4492 7.5128C9.67269 7.83443 8.84046 7.99997 8 7.99997L8 1.59998H14.4Z" fill="#1A1A1A"/>
</svg>
