<svg width="100" height="101" viewBox="0 0 100 101" fill="none" xmlns="http://www.w3.org/2000/svg">
<path d="M10.001 90.4995C10.001 85.2466 11.0356 80.0452 13.0458 75.1921C15.056 70.3391 18.0024 65.9296 21.7167 62.2152C25.431 58.5009 29.8406 55.5545 34.6936 53.5443C39.5466 51.5341 44.7481 50.4995 50.0009 50.4995V90.4995L10.001 90.4995Z" fill="#1A1A1A"/>
<path d="M50.001 50.4995C50.001 55.7524 51.0356 60.9538 53.0458 65.8068C55.056 70.6599 58.0024 75.0694 61.7167 78.7837C65.431 82.4981 69.8406 85.4445 74.6936 87.4546C79.5466 89.4648 84.7481 90.4995 90.0009 90.4995L90.0009 50.4995L50.001 50.4995Z" fill="#FFD400"/>
<path d="M50.0009 50.4995C50.0009 45.2466 48.9663 40.0452 46.9561 35.1921C44.9459 30.3391 41.9996 25.9296 38.2852 22.2152C34.5709 18.5009 30.1613 15.5545 25.3083 13.5443C20.4553 11.5341 15.2538 10.4995 10.001 10.4995L10.001 50.4995H50.0009Z" fill="#FFD400"/>
<path d="M90.0009 10.4995C90.0009 15.7524 88.9663 20.9538 86.9561 25.8068C84.9459 30.6598 81.9996 35.0694 78.2852 38.7837C74.5709 42.4981 70.1613 45.4445 65.3083 47.4546C60.4553 49.4648 55.2538 50.4995 50.001 50.4995L50.001 10.4995H90.0009Z" fill="#1A1A1A"/>
</svg>
