<svg width="60" height="60" viewBox="0 0 60 60" fill="none" xmlns="http://www.w3.org/2000/svg">
<path d="M21.062 47.4124C21.062 48.7931 19.9427 49.9124 18.562 49.9124H7.29346C5.91275 49.9124 4.79346 48.7931 4.79346 47.4124V38.3049C4.79346 35.049 5.3884 31.673 6.56982 28.1799L6.5708 28.177L6.80322 27.5188C7.99315 24.2375 9.56062 21.134 11.5044 18.2083V18.2063L11.8442 17.7063C13.552 15.2239 15.4232 13.0532 17.4585 11.1975L17.6187 11.0637C18.4437 10.4345 19.578 10.4275 20.436 10.9993L26.4624 15.0149L26.6665 15.1663C27.5725 15.9108 27.83 17.185 27.3306 18.2336L27.2124 18.4543C25.5936 21.1496 24.202 23.9429 23.0405 26.8352L23.0415 26.8362C21.6896 30.2542 21.0271 34.0373 21.062 38.1917V47.4124ZM47.9419 47.4124C47.9419 48.7931 46.8226 49.9124 45.4419 49.9124H34.1733C32.7926 49.9124 31.6733 48.7931 31.6733 47.4124V38.3049C31.6733 35.049 32.2673 31.673 33.4487 28.1799L33.4497 28.177L33.6831 27.5188C34.873 24.2377 36.4396 21.1338 38.3833 18.2083L38.3843 18.2063L38.7241 17.7063C40.4318 15.224 42.3022 13.0532 44.3374 11.1975L44.4985 11.0637C45.3235 10.4346 46.4579 10.4275 47.3159 10.9993L53.3423 15.0149L53.5464 15.1663C54.4522 15.9107 54.7098 17.1851 54.2104 18.2336L54.0923 18.4543C52.4735 21.1495 51.0818 23.943 49.9204 26.8352L49.9214 26.8362C48.5694 30.2542 47.907 34.0373 47.9419 38.1917V47.4124Z" fill="#FFE566" stroke="#FFE566"/>
</svg>
