<svg xmlns="http://www.w3.org/2000/svg" width="60" height="60" fill="none"><path fill="#FFE566" stroke="#FFE566" d="M21.062 47.412a2.5 2.5 0 0 1-2.5 2.5H7.293a2.5 2.5 0 0 1-2.5-2.5v-9.107Q4.795 33.42 6.57 28.18v-.003l.233-.658a43.7 43.7 0 0 1 4.701-9.31v-.003l.34-.5q2.562-3.724 5.615-6.508l.16-.134c.825-.63 1.959-.636 2.817-.065l6.026 4.016.204.151c.907.745 1.164 2.019.665 3.068l-.119.22a59 59 0 0 0-4.171 8.381v.001c-1.351 3.418-2.014 7.201-1.979 11.356zm26.88 0a2.5 2.5 0 0 1-2.5 2.5H34.173a2.5 2.5 0 0 1-2.5-2.5v-9.107q.001-4.885 1.776-10.125v-.003l.234-.658a43.7 43.7 0 0 1 4.7-9.31l.001-.003.34-.5q2.561-3.724 5.613-6.508l.161-.134c.826-.63 1.96-.636 2.818-.065l6.026 4.016.204.151c.906.745 1.164 2.02.664 3.068l-.118.22a59 59 0 0 0-4.172 8.381l.001.001q-2.03 5.125-1.98 11.356z"/></svg>