<svg width="25" height="24" viewBox="0 0 25 24" fill="none" xmlns="http://www.w3.org/2000/svg">
<path d="M17.5482 4.34537C15.477 5.17395 13.2587 5.71314 10.943 5.91296C10.2755 5.97055 9.59975 5.99996 8.91699 5.99996H8.16699C5.2675 5.99996 2.91699 8.35046 2.91699 11.25C2.91699 13.8496 4.80644 16.0079 7.28696 16.4265C7.62123 17.7955 8.08505 19.1137 8.66464 20.3674C9.1287 21.3711 10.3388 21.6874 11.2473 21.1629L11.9036 20.784C12.7837 20.2759 13.0693 19.1913 12.6757 18.3158C12.4408 17.7935 12.2312 17.2573 12.0484 16.7089C13.9658 16.967 15.8089 17.4587 17.5482 18.1545C18.2739 15.9852 18.667 13.6635 18.667 11.2499C18.667 8.83642 18.2739 6.51472 17.5482 4.34537Z" fill="#262626"/>
<path d="M18.9276 3.74066C19.7311 6.09636 20.167 8.62224 20.167 11.2499C20.167 13.8776 19.7311 16.4035 18.9276 18.7593C18.8724 18.921 18.8157 19.082 18.7571 19.2422C18.6147 19.6311 18.8146 20.0619 19.2036 20.2043C19.5926 20.3466 20.0233 20.1467 20.1657 19.7578C20.3057 19.3753 20.4366 18.9883 20.558 18.5972C21.0816 16.9105 21.4297 15.1468 21.581 13.3277C22.0979 12.7893 22.417 12.0566 22.417 11.25C22.417 10.4433 22.0979 9.71067 21.581 9.17222C21.4297 7.35313 21.0816 5.58942 20.558 3.90268C20.4366 3.51159 20.3057 3.12466 20.1657 2.74215C20.0233 2.35318 19.5926 2.15328 19.2036 2.29566C18.8146 2.43804 18.6147 2.86879 18.7571 3.25777C18.8157 3.41789 18.8724 3.57891 18.9276 3.74066Z" fill="#262626"/>
</svg>
