<svg width="25" height="24" viewBox="0 0 25 24" fill="none" xmlns="http://www.w3.org/2000/svg">
<path fill-rule="evenodd" clip-rule="evenodd" d="M19.7825 8.44818L16.7213 10.9992C16.8709 11.6574 16.8709 12.3426 16.7213 13.0008L19.7825 15.5518C20.8505 13.3118 20.8505 10.6882 19.7825 8.44818ZM15.8853 19.449L13.3343 16.3878C12.6761 16.5374 11.9909 16.5374 11.3327 16.3878L8.78167 19.449C11.0217 20.517 13.6453 20.517 15.8853 19.449ZM4.88452 15.5518L7.9457 13.0008C7.79609 12.3426 7.7961 11.6574 7.9457 10.9992L4.88452 8.44818C3.81649 10.6882 3.81649 13.3118 4.88452 15.5518ZM8.78167 4.55102L11.3327 7.6122C11.9909 7.4626 12.6761 7.4626 13.3343 7.6122L15.8853 4.55102C13.6453 3.48299 11.0217 3.48299 8.78167 4.55102ZM17.439 3.6912C18.0759 4.08325 18.677 4.55493 19.2278 5.10571C19.7786 5.65649 20.2502 6.25755 20.6423 6.89448C22.5639 10.0163 22.5639 13.9837 20.6423 17.1055C20.2502 17.7424 19.7786 18.3435 19.2278 18.8943C18.677 19.4451 18.0759 19.9167 17.439 20.3088C14.3172 22.2304 10.3498 22.2304 7.22798 20.3088C6.59105 19.9167 5.98999 19.4451 5.43921 18.8943C4.88842 18.3435 4.41675 17.7424 4.02469 17.1055C2.1031 13.9837 2.1031 10.0163 4.02469 6.89448C4.41675 6.25755 4.88842 5.65649 5.43921 5.10571C5.98999 4.55493 6.59105 4.08325 7.22798 3.6912C10.3498 1.7696 14.3172 1.7696 17.439 3.6912ZM14.4548 9.87868C14.1293 9.55313 13.7493 9.31907 13.3449 9.17471C12.6925 8.94176 11.9745 8.94176 11.322 9.17471C10.9177 9.31907 10.5377 9.55313 10.2122 9.87868C9.88662 10.2042 9.65256 10.5842 9.50821 10.9885C9.27526 11.641 9.27526 12.359 9.50821 13.0114C9.65256 13.4158 9.88662 13.7958 10.2122 14.1213C10.5377 14.4469 10.9177 14.6809 11.322 14.8253C11.9745 15.0582 12.6925 15.0582 13.3449 14.8253C13.7493 14.6809 14.1293 14.4469 14.4548 14.1213C14.7804 13.7958 15.0144 13.4158 15.1588 13.0115C15.3917 12.359 15.3917 11.641 15.1588 10.9885C15.0144 10.5842 14.7804 10.2042 14.4548 9.87868Z" fill="#262626"/>
</svg>
