<?xml version="1.0" encoding="utf-8"?><svg xmlns="http://www.w3.org/2000/svg" xmlns:xlink="http://www.w3.org/1999/xlink"><symbol viewBox="0 0 25 25" id="arrow" xmlns="http://www.w3.org/2000/svg">
    <path fill-rule="evenodd" clip-rule="evenodd" d="M8.75 4.25L20 4.25C20.1989 4.25 20.3897 4.32902 20.5303 4.46967C20.671 4.61032 20.75 4.80109 20.75 5V16.25C20.75 16.6642 20.4142 17 20 17C19.5858 17 19.25 16.6642 19.25 16.25V6.81066L5.53033 20.5303C5.23744 20.8232 4.76256 20.8232 4.46967 20.5303C4.17678 20.2374 4.17678 19.7626 4.46967 19.4697L18.1893 5.75L8.75 5.75C8.33579 5.75 8 5.41421 8 5C8 4.58579 8.33579 4.25 8.75 4.25Z"/>
</symbol><symbol viewBox="0 0 24 25" id="cart" xmlns="http://www.w3.org/2000/svg">
    <path d="M2.25 2.75C1.83579 2.75 1.5 3.08579 1.5 3.5C1.5 3.91421 1.83579 4.25 2.25 4.25H3.63568C3.80558 4.25 3.95425 4.36422 3.99803 4.52838L6.55576 14.1199C4.94178 14.5385 3.75 16.0051 3.75 17.75C3.75 18.1642 4.08579 18.5 4.5 18.5H20.25C20.6642 18.5 21 18.1642 21 17.75C21 17.3358 20.6642 17 20.25 17H5.37803C5.68691 16.1261 6.52034 15.5 7.5 15.5H18.7183C19.0051 15.5 19.2668 15.3364 19.3925 15.0785C20.5277 12.749 21.5183 10.336 22.3527 7.85126C22.4191 7.65357 22.4002 7.43716 22.3005 7.25399C22.2008 7.07082 22.0294 6.93743 21.8273 6.88583C17.0055 5.65442 11.9536 5 6.75 5C6.39217 5 6.03505 5.0031 5.67868 5.00926L5.44738 4.14188C5.2285 3.32109 4.48515 2.75 3.63568 2.75H2.25Z"/>
    <path d="M3.75 20.75C3.75 19.9216 4.42157 19.25 5.25 19.25C6.07843 19.25 6.75 19.9216 6.75 20.75C6.75 21.5784 6.07843 22.25 5.25 22.25C4.42157 22.25 3.75 21.5784 3.75 20.75Z"/>
    <path d="M16.5 20.75C16.5 19.9216 17.1716 19.25 18 19.25C18.8284 19.25 19.5 19.9216 19.5 20.75C19.5 21.5784 18.8284 22.25 18 22.25C17.1716 22.25 16.5 21.5784 16.5 20.75Z"/>
</symbol><symbol viewBox="0 0 27 25" id="dress" xmlns="http://www.w3.org/2000/svg">
    <path d="M13.3719 5.40647C13.9423 5.084 14.5535 4.74663 15.1537 4.3912C15.2439 4.33785 15.3129 4.20761 15.342 4.09934C15.5342 3.38379 15.6958 2.65882 15.9022 1.94798C16.0144 1.56353 16.296 1.41916 16.5761 1.54862C16.9096 1.70319 16.9072 1.97387 16.8099 2.27908C16.6758 2.70041 16.551 3.12566 16.4271 3.55012C16.2301 4.22801 16.2741 4.87765 16.5699 5.53279C16.9418 6.35583 16.7935 7.19377 16.4043 7.95561C15.8065 9.12466 15.8881 10.2529 16.3816 11.4212C17.3325 13.6761 18.6608 15.7043 20.0809 17.6791C20.7133 18.5594 21.4022 19.3989 22.0369 20.2777C22.1538 20.4393 22.2299 20.7531 22.1491 20.8991C22.0691 21.0442 21.7576 21.1493 21.563 21.1282C19.447 20.9038 17.4565 21.3502 15.6503 22.4094C13.3601 23.7526 11.0149 23.744 8.58819 22.9853C7.274 22.5742 6.0469 21.9653 4.89747 21.2058C4.41808 20.8889 4.38356 20.67 4.73898 20.2204C6.52393 17.9639 8.2265 15.6486 9.56266 13.0916C9.97771 12.2976 10.2947 11.451 10.6234 10.6154C10.9271 9.84334 10.8023 9.07758 10.4948 8.32908C10.3614 8.00347 10.2186 7.68022 10.1111 7.34598C9.93613 6.79834 9.86159 6.21068 10.1174 5.6952C10.6109 4.70033 10.4226 3.74235 10.1111 2.76867C10.0475 2.57016 9.97143 2.37558 9.90474 2.17865C9.8051 1.88521 9.88434 1.64591 10.177 1.53921C10.4657 1.43329 10.7137 1.54862 10.7992 1.8452C11.0118 2.58193 11.1891 3.32887 11.397 4.06795C11.4331 4.19506 11.5234 4.34256 11.6324 4.40847C12.2083 4.75683 12.7991 5.08165 13.3711 5.40725L13.3719 5.40647Z"/>
</symbol><symbol viewBox="0 0 20 20" id="facebook" xmlns="http://www.w3.org/2000/svg">
    <g clip-path="url(#dclip0_99_732)">
        <path d="M20 10C20 4.47715 15.5229 0 10 0C4.47715 0 0 4.47715 0 10C0 14.9912 3.65684 19.1283 8.4375 19.8785V12.8906H5.89844V10H8.4375V7.79688C8.4375 5.29063 9.93047 3.90625 12.2146 3.90625C13.3084 3.90625 14.4531 4.10156 14.4531 4.10156V6.5625H13.1922C11.95 6.5625 11.5625 7.3334 11.5625 8.125V10H14.3359L13.8926 12.8906H11.5625V19.8785C16.3432 19.1283 20 14.9912 20 10Z"/>
    </g>
    <defs>
        <clipPath id="dclip0_99_732">
            <rect width="20" height="20"/>
        </clipPath>
    </defs>
</symbol><symbol viewBox="0 0 27 25" id="kid" xmlns="http://www.w3.org/2000/svg">
    <path d="M6.89613 9.12978C6.6013 9.29501 6.3753 9.43108 6.14027 9.55119C5.8197 9.71503 5.52 9.67129 5.30095 9.38943C4.40601 8.23906 3.51803 7.08314 2.64047 5.91958C2.41169 5.61619 2.46732 5.26351 2.7712 5.02608C3.87475 4.16452 4.97622 3.29949 6.10132 2.46709C6.78765 1.96098 7.58594 1.68328 8.44681 1.5C8.44194 4.35127 10.0844 5.84738 12.6427 6.63188C12.3179 7.33792 11.9925 8.04953 11.665 8.75974C11.3458 9.45191 11.0336 10.1468 10.704 10.8335C10.3577 11.5548 10.3577 12.2546 10.8778 12.8801C11.3736 13.4765 12.0307 13.7944 12.8179 13.6299C13.6503 13.4556 14.1273 12.8968 14.2851 12.0713C14.6085 12.0567 14.9416 12.0949 15.2447 12.0178C16.454 11.7103 16.9978 10.4121 16.3768 9.32625C15.9123 8.51398 15.4137 7.72115 14.9304 6.91929C14.8713 6.82071 14.8115 6.72282 14.7427 6.60897C17.2245 5.80086 18.8356 4.30823 18.8217 1.50069C19.7076 1.67634 20.5289 1.9825 21.2409 2.51082C22.3375 3.32448 23.4098 4.17007 24.4848 5.0122C24.8158 5.27185 24.8603 5.62522 24.6065 5.95984C23.747 7.09355 22.8806 8.2224 22.0086 9.34638C21.7541 9.67476 21.4516 9.72544 21.0886 9.52966C20.8675 9.41095 20.6519 9.28182 20.378 9.12492C20.3981 11.7513 20.241 14.3262 20.759 16.8401C16.6125 17.1851 15.1314 19.7434 15.0271 23.5H12.1865C12.2832 21.7915 11.9306 20.2183 10.8403 18.8784C9.74437 17.5323 8.33624 16.8255 6.49421 16.9283C7.02617 14.3387 6.8711 11.7624 6.89752 9.12769L6.89613 9.12978Z"/>
    <path d="M17.4861 1.5C17.5845 3.01033 16.9341 4.06617 15.7511 4.79837C14.2826 5.70736 12.7941 5.66072 11.3652 4.69676C10.266 3.95551 9.68138 2.92403 9.78527 1.50348C12.3522 2.11805 14.8963 2.13685 17.4861 1.5Z"/>
    <path d="M10.9047 23.5C8.32404 23.3172 6.62895 20.9293 6.54102 18.3227C7.28702 18.2278 7.98697 18.3497 8.64575 18.7201C10.3374 19.6706 11.1252 21.6985 10.9047 23.5Z"/>
    <path d="M20.7282 18.3345C20.7014 20.6238 19.2008 23.2921 16.4676 23.5C16.0527 20.6252 18.305 17.9174 20.7282 18.3345Z"/>
    <path d="M13.0057 9.25163C13.0057 10.0961 13.0071 10.9413 13.005 11.7858C13.0043 12.0295 12.908 12.2297 12.6562 12.3248C12.3596 12.4361 12.1199 12.3017 11.9167 12.1211C11.737 11.9616 11.702 11.7572 11.8104 11.5346C12.1848 10.7648 12.555 9.99293 12.9265 9.22244C12.9529 9.23195 12.9793 9.24213 13.0057 9.25163Z"/>
    <path d="M14.3426 8.50409C14.639 9.00345 14.9606 9.48969 15.2168 10.0091C15.2917 10.1617 15.2358 10.4428 15.1377 10.5996C15.0682 10.7101 14.8202 10.764 14.6635 10.7454C14.4115 10.7157 14.2759 10.5043 14.2704 10.2522C14.2582 9.67963 14.2663 9.10706 14.2663 8.53448C14.2922 8.52412 14.3174 8.51445 14.3433 8.50409H14.3426Z"/>
</symbol><symbol viewBox="0 0 20 20" id="linkedin" xmlns="http://www.w3.org/2000/svg">
    <g clip-path="url(#fclip0_99_738)">
        <path d="M18.5195 0H1.47656C0.660156 0 0 0.644531 0 1.44141V18.5547C0 19.3516 0.660156 20 1.47656 20H18.5195C19.3359 20 20 19.3516 20 18.5586V1.44141C20 0.644531 19.3359 0 18.5195 0ZM5.93359 17.043H2.96484V7.49609H5.93359V17.043ZM4.44922 6.19531C3.49609 6.19531 2.72656 5.42578 2.72656 4.47656C2.72656 3.52734 3.49609 2.75781 4.44922 2.75781C5.39844 2.75781 6.16797 3.52734 6.16797 4.47656C6.16797 5.42188 5.39844 6.19531 4.44922 6.19531ZM17.043 17.043H14.0781V12.4023C14.0781 11.2969 14.0586 9.87109 12.5352 9.87109C10.9922 9.87109 10.7578 11.0781 10.7578 12.3242V17.043H7.79688V7.49609H10.6406V8.80078H10.6797C11.0742 8.05078 12.043 7.25781 13.4844 7.25781C16.4883 7.25781 17.043 9.23438 17.043 11.8047V17.043Z"/>
    </g>
    <defs>
        <clipPath id="fclip0_99_738">
            <rect width="20" height="20"/>
        </clipPath>
    </defs>
</symbol><symbol viewBox="0 0 24 25" id="phone" xmlns="http://www.w3.org/2000/svg">
    <path fill-rule="evenodd" clip-rule="evenodd" d="M1.5 5C1.5 3.34315 2.84315 2 4.5 2H5.87163C6.732 2 7.48197 2.58556 7.69064 3.42025L8.79644 7.84343C8.97941 8.5753 8.70594 9.34555 8.10242 9.79818L6.8088 10.7684C6.67447 10.8691 6.64527 11.0167 6.683 11.1197C7.81851 14.2195 10.2805 16.6815 13.3803 17.817C13.4833 17.8547 13.6309 17.8255 13.7316 17.6912L14.7018 16.3976C15.1545 15.7941 15.9247 15.5206 16.6566 15.7036L21.0798 16.8094C21.9144 17.018 22.5 17.768 22.5 18.6284V20C22.5 21.6569 21.1569 23 19.5 23H17.25C8.55151 23 1.5 15.9485 1.5 7.25V5Z"/>
</symbol><symbol viewBox="0 0 24 24" id="search" xmlns="http://www.w3.org/2000/svg">
    <path d="M11 19C15.4183 19 19 15.4183 19 11C19 6.58172 15.4183 3 11 3C6.58172 3 3 6.58172 3 11C3 15.4183 6.58172 19 11 19Z" stroke-width="2" stroke-linecap="round" stroke-linejoin="round"/>
    <path d="M21.0004 20.9999L16.6504 16.6499" stroke-width="2" stroke-linecap="round" stroke-linejoin="round"/>
</symbol><symbol viewBox="0 0 25 25" id="shop" xmlns="http://www.w3.org/2000/svg">
    <path fill-rule="evenodd" clip-rule="evenodd" d="M8.125 6.5V7.25H6.13787C5.17832 7.25 4.37362 7.97444 4.27317 8.92872L3.01002 20.9287C2.89348 22.0358 3.76152 23 4.87471 23H20.3754C21.4886 23 22.3567 22.0358 22.2401 20.9287L20.977 8.92872C20.8765 7.97444 20.0718 7.25 19.1123 7.25H17.125V6.5C17.125 4.01472 15.1103 2 12.625 2C10.1397 2 8.125 4.01472 8.125 6.5ZM12.625 3.5C10.9681 3.5 9.625 4.84315 9.625 6.5V7.25H15.625V6.5C15.625 4.84315 14.2819 3.5 12.625 3.5ZM9.625 11.75C9.625 13.4069 10.9681 14.75 12.625 14.75C14.2819 14.75 15.625 13.4069 15.625 11.75V11C15.625 10.5858 15.9608 10.25 16.375 10.25C16.7892 10.25 17.125 10.5858 17.125 11V11.75C17.125 14.2353 15.1103 16.25 12.625 16.25C10.1397 16.25 8.125 14.2353 8.125 11.75V11C8.125 10.5858 8.46079 10.25 8.875 10.25C9.28921 10.25 9.625 10.5858 9.625 11V11.75Z"/>
</symbol><symbol viewBox="0 0 27 25" id="t-shirt" xmlns="http://www.w3.org/2000/svg">
    <path d="M19.9695 12.388V12.8962C19.9695 15.7472 19.9695 18.5973 19.9695 21.4483C19.9695 22.2744 19.7443 22.5 18.9177 22.5C15.3102 22.5 11.7035 22.5 8.09594 22.5C7.27176 22.5 7.04735 22.2736 7.04654 21.4458C7.04654 18.5949 7.04654 15.7448 7.04654 12.8938V12.388C6.80034 12.5229 6.60256 12.6256 6.40963 12.738C5.86395 13.056 5.58384 13.003 5.22785 12.4747C4.55461 11.4752 3.89349 10.4676 3.22672 9.46319C3.04186 9.1846 2.84812 8.91002 2.67295 8.62581C2.36136 8.1192 2.47518 7.63909 2.9789 7.31795C4.87993 6.10564 6.79146 4.90857 8.67796 3.67458C9.17037 3.35264 9.67489 3.24586 10.223 3.31731C10.4668 2.60116 10.6097 2.5 11.3475 2.5C12.7876 2.5 14.2277 2.5 15.6678 2.5C16.4088 2.5 16.5485 2.59875 16.7931 3.32213C17.6084 3.1174 18.2081 3.59751 18.8402 4.00215C20.558 5.10367 22.2806 6.19636 24 7.29467C24.5603 7.65274 24.6434 8.06381 24.281 8.60654C23.4196 9.89914 22.5591 11.1933 21.7019 12.4884C21.3701 12.9893 21.0795 13.0584 20.5588 12.7461C20.3877 12.6433 20.2182 12.5381 19.9703 12.3864L19.9695 12.388Z"/>
</symbol><symbol viewBox="0 0 20 20" id="twitter" xmlns="http://www.w3.org/2000/svg">
    <path d="M6.2918 18.1246C13.8371 18.1246 17.9652 11.8719 17.9652 6.45118C17.9652 6.2754 17.9613 6.09572 17.9535 5.91993C18.7566 5.33918 19.4496 4.61985 20 3.79572C19.2521 4.12847 18.458 4.34579 17.6449 4.44025C18.5011 3.92706 19.1421 3.12086 19.4492 2.17111C18.6438 2.64843 17.763 2.98514 16.8445 3.16681C16.2257 2.50927 15.4075 2.0739 14.5164 1.92801C13.6253 1.78212 12.711 1.93384 11.9148 2.35971C11.1186 2.78559 10.4848 3.46189 10.1115 4.28406C9.73825 5.10623 9.64619 6.02848 9.84961 6.90822C8.21874 6.82638 6.62328 6.40272 5.16665 5.66472C3.71002 4.92671 2.42474 3.89083 1.39414 2.62423C0.870333 3.52734 0.710047 4.596 0.945859 5.61304C1.18167 6.63008 1.79589 7.51917 2.66367 8.09962C2.01219 8.07894 1.37498 7.90353 0.804688 7.5879V7.63868C0.804104 8.58643 1.13175 9.50512 1.73192 10.2386C2.3321 10.9721 3.16777 11.4751 4.09687 11.6621C3.49338 11.8272 2.85999 11.8513 2.2457 11.7324C2.50788 12.5475 3.01798 13.2604 3.70481 13.7716C4.39164 14.2828 5.22093 14.5668 6.07695 14.584C4.62369 15.7256 2.82848 16.3447 0.980469 16.3418C0.652739 16.3413 0.325333 16.3212 0 16.2817C1.87738 17.4861 4.06128 18.1258 6.2918 18.1246Z"/>
</symbol></svg>